<?xml version="1.0" encoding="UTF-8"?>
<svg width="1024" height="1024" viewBox="0 0 432 432" xmlns="http://www.w3.org/2000/svg">
  <defs>
    <linearGradient id="rk-grad" x1="0" y1="0.5" x2="1" y2="0.5">
      <stop offset="0%" stop-color="#009FE3"/>
      <stop offset="100%" stop-color="#95C11F"/>
    </linearGradient>
    <radialGradient id="bg-grad" cx="0.5" cy="0.4" r="0.7">
      <stop offset="0%" stop-color="#1f2128"/>
      <stop offset="100%" stop-color="#0a0b0e"/>
    </radialGradient>
  </defs>
  <rect width="432" height="432" rx="98" ry="98" fill="url(#bg-grad)"/>
  <g stroke="url(#rk-grad)" fill="none" opacity="0.18">
    <circle cx="216" cy="216" r="158" stroke-width="1"/>
    <circle cx="216" cy="216" r="128" stroke-width="1"/>
    <circle cx="216" cy="216" r="98"  stroke-width="1"/>
  </g>
  <circle cx="346" cy="86" r="14" fill="#e6614f"/>
  <circle cx="346" cy="86" r="20" fill="none" stroke="#e6614f" stroke-width="1.5" opacity="0.55"/>
  <g transform="translate(48, 48) scale(0.66)">
    <path fill="url(#rk-grad)" d="M222.04,406.26c4.58-43.22,26.8-75.46,54.29-103.92c20.62-21.36,43.52-40.7,66.61-59.46
      c22.22-18.05,23.16-28.16-3.45-38.53c-33.44-13.03-68.03-24.31-103.1-31.68c-67.05-14.1-133.21-29.76-195.39-65.43
      c5.76,27.39,20.51,46.35,41.92,58.87c20.39,11.93,42.66,20.64,66.8,32.04c-20.26,3.39-39.29,6.57-57.72,9.65
      c7.64,18.61,38.35,35.06,101.61,52.51c-12.64,10.73-29.08,13.85-60.85,10.88c19.7,23.06,44.25,34.49,70.37,43.46
      c-39.6-5.15-71.47-22.94-94.89-58.56c8.43,1.03,15.15,1.85,21.87,2.67c-33.99-17.01-59.08-42.3-75.27-78.31
      c11.08,2.73,21.16,5.22,31.25,7.71c-31.1-24.28-55.26-51.8-53.96-92.78c26.03,12.79,51.38,26.72,77.87,37.95
      c42.62,18.07,88.5,23.22,133.66,31.39c32.29,5.84,64.03,14.89,95.84,23.2c7.03,1.83,13.72,5.94,19.84,10.07
      c19.72,13.33,21.85,31.94,4.6,48.26c-14.22,13.46-31.08,24.22-44.67,38.22c-21.74,22.39-41.75,46.48-60.96,72
      c64.96-30.79,131.28-49.33,203.31-39.28c0.92-1.27,1.84-2.55,2.77-3.82c-3.62-2.22-6.99-5.64-10.89-6.44
      c-12.36-2.54-15.67-11.85-20.54-21.82c-7.68-15.73-23.63-17.87-39.47-18.03c-4.97-0.05-9.95,0.44-16.57,0.76
      c29.28-11.5,54.04-3.07,67.66,21.47c1.48,2.66,4.64,4.93,7.54,6.16c16.72,7.1,24.4,16.53,27.84,36.1
      C383.39,318.07,300.07,350.61,222.04,406.26z"/>
  </g>
  <text x="216" y="408" text-anchor="middle"
        font-family="monospace" font-size="22" font-weight="700"
        letter-spacing="3" fill="rgba(255,255,255,0.85)">REGIA</text>
</svg>